<mxfile host="app.diagrams.net" agent="Mozilla/5.0 (Windows NT 10.0; Win64; x64) AppleWebKit/537.36 (KHTML, like Gecko) Chrome/138.0.0.0 Safari/537.36" version="28.1.1">
  <diagram name="PÃ¡gina-1" id="K2zmLa8b1TfUrX6cofTv">
    <mxGraphModel dx="1699" dy="1634" grid="1" gridSize="10" guides="1" tooltips="1" connect="1" arrows="1" fold="1" page="1" pageScale="1" pageWidth="827" pageHeight="1169" math="0" shadow="0">
      <root>
        <mxCell id="0" />
        <mxCell id="1" parent="0" />
        <mxCell id="IhZcXb-aFPSrtWPQYi8L-1" value="" style="rounded=0;whiteSpace=wrap;html=1;" vertex="1" parent="1">
          <mxGeometry x="69" y="30" width="690" height="480" as="geometry" />
        </mxCell>
        <mxCell id="IhZcXb-aFPSrtWPQYi8L-2" value="administrador" style="shape=umlActor;verticalLabelPosition=bottom;verticalAlign=top;html=1;outlineConnect=0;" vertex="1" parent="1">
          <mxGeometry x="-10" y="220" width="30" height="60" as="geometry" />
        </mxCell>
        <mxCell id="IhZcXb-aFPSrtWPQYi8L-3" value="empleado" style="shape=umlActor;verticalLabelPosition=bottom;verticalAlign=top;html=1;outlineConnect=0;" vertex="1" parent="1">
          <mxGeometry x="810" y="210" width="30" height="60" as="geometry" />
        </mxCell>
        <mxCell id="IhZcXb-aFPSrtWPQYi8L-4" value="actualizar stock" style="ellipse;whiteSpace=wrap;html=1;" vertex="1" parent="1">
          <mxGeometry x="379" y="50" width="70" height="60" as="geometry" />
        </mxCell>
        <mxCell id="IhZcXb-aFPSrtWPQYi8L-5" value="historial" style="ellipse;whiteSpace=wrap;html=1;" vertex="1" parent="1">
          <mxGeometry x="670" y="60" width="60" height="40" as="geometry" />
        </mxCell>
        <mxCell id="IhZcXb-aFPSrtWPQYi8L-7" value="alerta de stock bajo" style="ellipse;whiteSpace=wrap;html=1;" vertex="1" parent="1">
          <mxGeometry x="630" y="430" width="71" height="50" as="geometry" />
        </mxCell>
        <mxCell id="IhZcXb-aFPSrtWPQYi8L-8" value="producto nuevo" style="ellipse;whiteSpace=wrap;html=1;" vertex="1" parent="1">
          <mxGeometry x="370" y="225" width="70" height="50" as="geometry" />
        </mxCell>
        <mxCell id="IhZcXb-aFPSrtWPQYi8L-11" value="numero de stock" style="ellipse;whiteSpace=wrap;html=1;" vertex="1" parent="1">
          <mxGeometry x="370" y="390" width="70" height="50" as="geometry" />
        </mxCell>
        <mxCell id="IhZcXb-aFPSrtWPQYi8L-12" value="inventario" style="text;html=1;align=center;verticalAlign=middle;resizable=0;points=[];autosize=1;strokeColor=none;fillColor=none;" vertex="1" parent="1">
          <mxGeometry x="360" y="-50" width="80" height="30" as="geometry" />
        </mxCell>
        <mxCell id="IhZcXb-aFPSrtWPQYi8L-14" value="" style="endArrow=none;html=1;rounded=0;entryX=0.014;entryY=0.617;entryDx=0;entryDy=0;entryPerimeter=0;" edge="1" parent="1" source="IhZcXb-aFPSrtWPQYi8L-28" target="IhZcXb-aFPSrtWPQYi8L-4">
          <mxGeometry width="50" height="50" relative="1" as="geometry">
            <mxPoint x="360" y="260" as="sourcePoint" />
            <mxPoint x="410" y="210" as="targetPoint" />
          </mxGeometry>
        </mxCell>
        <mxCell id="IhZcXb-aFPSrtWPQYi8L-15" value="" style="endArrow=none;html=1;rounded=0;exitX=1;exitY=0.5;exitDx=0;exitDy=0;" edge="1" parent="1" source="IhZcXb-aFPSrtWPQYi8L-29" target="IhZcXb-aFPSrtWPQYi8L-3">
          <mxGeometry width="50" height="50" relative="1" as="geometry">
            <mxPoint x="360" y="247" as="sourcePoint" />
            <mxPoint x="706" y="110" as="targetPoint" />
          </mxGeometry>
        </mxCell>
        <mxCell id="IhZcXb-aFPSrtWPQYi8L-16" value="" style="endArrow=none;html=1;rounded=0;exitX=1;exitY=0.5;exitDx=0;exitDy=0;" edge="1" parent="1" source="IhZcXb-aFPSrtWPQYi8L-30" target="IhZcXb-aFPSrtWPQYi8L-3">
          <mxGeometry width="50" height="50" relative="1" as="geometry">
            <mxPoint x="435" y="190" as="sourcePoint" />
            <mxPoint x="810" y="325" as="targetPoint" />
          </mxGeometry>
        </mxCell>
        <mxCell id="IhZcXb-aFPSrtWPQYi8L-17" value="" style="endArrow=none;html=1;rounded=0;exitX=1;exitY=0.5;exitDx=0;exitDy=0;" edge="1" parent="1" source="IhZcXb-aFPSrtWPQYi8L-27" target="IhZcXb-aFPSrtWPQYi8L-3">
          <mxGeometry width="50" height="50" relative="1" as="geometry">
            <mxPoint x="580" y="300" as="sourcePoint" />
            <mxPoint x="955" y="353" as="targetPoint" />
          </mxGeometry>
        </mxCell>
        <mxCell id="IhZcXb-aFPSrtWPQYi8L-18" value="" style="endArrow=none;html=1;rounded=0;entryX=0;entryY=0.5;entryDx=0;entryDy=0;" edge="1" parent="1" source="IhZcXb-aFPSrtWPQYi8L-26" target="IhZcXb-aFPSrtWPQYi8L-11">
          <mxGeometry width="50" height="50" relative="1" as="geometry">
            <mxPoint x="20" y="250" as="sourcePoint" />
            <mxPoint x="616" y="140" as="targetPoint" />
          </mxGeometry>
        </mxCell>
        <mxCell id="IhZcXb-aFPSrtWPQYi8L-19" value="" style="endArrow=none;html=1;rounded=0;entryX=0.071;entryY=0.64;entryDx=0;entryDy=0;entryPerimeter=0;" edge="1" parent="1" source="IhZcXb-aFPSrtWPQYi8L-23" target="IhZcXb-aFPSrtWPQYi8L-8">
          <mxGeometry width="50" height="50" relative="1" as="geometry">
            <mxPoint x="24" y="297" as="sourcePoint" />
            <mxPoint x="370" y="160" as="targetPoint" />
          </mxGeometry>
        </mxCell>
        <mxCell id="IhZcXb-aFPSrtWPQYi8L-20" value="" style="endArrow=none;html=1;rounded=0;exitX=1;exitY=0.5;exitDx=0;exitDy=0;" edge="1" parent="1" source="IhZcXb-aFPSrtWPQYi8L-25" target="IhZcXb-aFPSrtWPQYi8L-5">
          <mxGeometry width="50" height="50" relative="1" as="geometry">
            <mxPoint x="160" y="336" as="sourcePoint" />
            <mxPoint x="520" y="180" as="targetPoint" />
          </mxGeometry>
        </mxCell>
        <mxCell id="IhZcXb-aFPSrtWPQYi8L-22" value="" style="endArrow=none;html=1;rounded=0;entryX=0;entryY=0.5;entryDx=0;entryDy=0;exitX=1;exitY=0.5;exitDx=0;exitDy=0;" edge="1" parent="1" source="IhZcXb-aFPSrtWPQYi8L-24" target="IhZcXb-aFPSrtWPQYi8L-7">
          <mxGeometry width="50" height="50" relative="1" as="geometry">
            <mxPoint x="340" y="360" as="sourcePoint" />
            <mxPoint x="390" y="310" as="targetPoint" />
          </mxGeometry>
        </mxCell>
        <mxCell id="IhZcXb-aFPSrtWPQYi8L-31" value="" style="endArrow=none;html=1;rounded=0;exitX=1;exitY=0.5;exitDx=0;exitDy=0;" edge="1" parent="1" source="IhZcXb-aFPSrtWPQYi8L-11" target="IhZcXb-aFPSrtWPQYi8L-27">
          <mxGeometry width="50" height="50" relative="1" as="geometry">
            <mxPoint x="440" y="415" as="sourcePoint" />
            <mxPoint x="810" y="247" as="targetPoint" />
          </mxGeometry>
        </mxCell>
        <mxCell id="IhZcXb-aFPSrtWPQYi8L-27" value="include" style="text;html=1;align=center;verticalAlign=middle;resizable=0;points=[];autosize=1;strokeColor=none;fillColor=none;" vertex="1" parent="1">
          <mxGeometry x="580" y="320" width="60" height="30" as="geometry" />
        </mxCell>
        <mxCell id="IhZcXb-aFPSrtWPQYi8L-32" value="" style="endArrow=none;html=1;rounded=0;entryX=0;entryY=0.5;entryDx=0;entryDy=0;" edge="1" parent="1" target="IhZcXb-aFPSrtWPQYi8L-26">
          <mxGeometry width="50" height="50" relative="1" as="geometry">
            <mxPoint x="20" y="250" as="sourcePoint" />
            <mxPoint x="370" y="415" as="targetPoint" />
          </mxGeometry>
        </mxCell>
        <mxCell id="IhZcXb-aFPSrtWPQYi8L-26" value="include" style="text;html=1;align=center;verticalAlign=middle;resizable=0;points=[];autosize=1;strokeColor=none;fillColor=none;" vertex="1" parent="1">
          <mxGeometry x="160" y="320" width="60" height="30" as="geometry" />
        </mxCell>
        <mxCell id="IhZcXb-aFPSrtWPQYi8L-33" value="" style="endArrow=none;html=1;rounded=0;entryX=0.071;entryY=0.64;entryDx=0;entryDy=0;entryPerimeter=0;" edge="1" parent="1" source="IhZcXb-aFPSrtWPQYi8L-2" target="IhZcXb-aFPSrtWPQYi8L-23">
          <mxGeometry width="50" height="50" relative="1" as="geometry">
            <mxPoint x="20" y="250" as="sourcePoint" />
            <mxPoint x="375" y="257" as="targetPoint" />
          </mxGeometry>
        </mxCell>
        <mxCell id="IhZcXb-aFPSrtWPQYi8L-23" value="include" style="text;html=1;align=center;verticalAlign=middle;resizable=0;points=[];autosize=1;strokeColor=none;fillColor=none;" vertex="1" parent="1">
          <mxGeometry x="190" y="235" width="60" height="30" as="geometry" />
        </mxCell>
        <mxCell id="IhZcXb-aFPSrtWPQYi8L-34" value="" style="endArrow=none;html=1;rounded=0;exitX=1;exitY=0.5;exitDx=0;exitDy=0;" edge="1" parent="1" source="IhZcXb-aFPSrtWPQYi8L-8" target="IhZcXb-aFPSrtWPQYi8L-30">
          <mxGeometry width="50" height="50" relative="1" as="geometry">
            <mxPoint x="440" y="250" as="sourcePoint" />
            <mxPoint x="810" y="240" as="targetPoint" />
          </mxGeometry>
        </mxCell>
        <mxCell id="IhZcXb-aFPSrtWPQYi8L-30" value="include" style="text;html=1;align=center;verticalAlign=middle;resizable=0;points=[];autosize=1;strokeColor=none;fillColor=none;" vertex="1" parent="1">
          <mxGeometry x="570" y="235" width="60" height="30" as="geometry" />
        </mxCell>
        <mxCell id="IhZcXb-aFPSrtWPQYi8L-35" value="" style="endArrow=none;html=1;rounded=0;exitX=1;exitY=0.5;exitDx=0;exitDy=0;" edge="1" parent="1" source="IhZcXb-aFPSrtWPQYi8L-4" target="IhZcXb-aFPSrtWPQYi8L-29">
          <mxGeometry width="50" height="50" relative="1" as="geometry">
            <mxPoint x="449" y="80" as="sourcePoint" />
            <mxPoint x="810" y="234" as="targetPoint" />
          </mxGeometry>
        </mxCell>
        <mxCell id="IhZcXb-aFPSrtWPQYi8L-29" value="include" style="text;html=1;align=center;verticalAlign=middle;resizable=0;points=[];autosize=1;strokeColor=none;fillColor=none;" vertex="1" parent="1">
          <mxGeometry x="590" y="140" width="60" height="30" as="geometry" />
        </mxCell>
        <mxCell id="IhZcXb-aFPSrtWPQYi8L-36" value="" style="endArrow=none;html=1;rounded=0;entryX=0.014;entryY=0.617;entryDx=0;entryDy=0;entryPerimeter=0;" edge="1" parent="1" source="IhZcXb-aFPSrtWPQYi8L-2" target="IhZcXb-aFPSrtWPQYi8L-28">
          <mxGeometry width="50" height="50" relative="1" as="geometry">
            <mxPoint x="20" y="243" as="sourcePoint" />
            <mxPoint x="380" y="87" as="targetPoint" />
          </mxGeometry>
        </mxCell>
        <mxCell id="IhZcXb-aFPSrtWPQYi8L-28" value="include" style="text;html=1;align=center;verticalAlign=middle;resizable=0;points=[];autosize=1;strokeColor=none;fillColor=none;" vertex="1" parent="1">
          <mxGeometry x="200" y="130" width="60" height="30" as="geometry" />
        </mxCell>
        <mxCell id="IhZcXb-aFPSrtWPQYi8L-37" value="" style="endArrow=none;html=1;rounded=0;exitX=1;exitY=0.5;exitDx=0;exitDy=0;" edge="1" parent="1" source="IhZcXb-aFPSrtWPQYi8L-4" target="IhZcXb-aFPSrtWPQYi8L-25">
          <mxGeometry width="50" height="50" relative="1" as="geometry">
            <mxPoint x="449" y="80" as="sourcePoint" />
            <mxPoint x="590" y="80" as="targetPoint" />
          </mxGeometry>
        </mxCell>
        <mxCell id="IhZcXb-aFPSrtWPQYi8L-25" value="exc&lt;span style=&quot;color: rgba(0, 0, 0, 0); font-family: monospace; font-size: 0px; text-align: start;&quot;&gt;%3CmxGraphModel%3E%3Croot%3E%3CmxCell%20id%3D%220%22%2F%3E%3CmxCell%20id%3D%221%22%20parent%3D%220%22%2F%3E%3CmxCell%20id%3D%222%22%20value%3D%22%22%20style%3D%22endArrow%3Dnone%3Bhtml%3D1%3Brounded%3D0%3BentryX%3D0.014%3BentryY%3D0.617%3BentryDx%3D0%3BentryDy%3D0%3BentryPerimeter%3D0%3B%22%20edge%3D%221%22%20parent%3D%221%22%3E%3CmxGeometry%20width%3D%2250%22%20height%3D%2250%22%20relative%3D%221%22%20as%3D%22geometry%22%3E%3CmxPoint%20x%3D%2220%22%20y%3D%22243%22%20as%3D%22sourcePoint%22%2F%3E%3CmxPoint%20x%3D%22380%22%20y%3D%2287%22%20as%3D%22targetPoint%22%2F%3E%3C%2FmxGeometry%3E%3C%2FmxCell%3E%3C%2Froot%3E%3C%2FmxGraphModel%3E&lt;/span&gt;lude" style="text;html=1;align=center;verticalAlign=middle;resizable=0;points=[];autosize=1;strokeColor=none;fillColor=none;" vertex="1" parent="1">
          <mxGeometry x="540" y="65" width="60" height="30" as="geometry" />
        </mxCell>
        <mxCell id="IhZcXb-aFPSrtWPQYi8L-38" value="" style="endArrow=none;html=1;rounded=0;entryX=0;entryY=0.5;entryDx=0;entryDy=0;exitX=1;exitY=0.5;exitDx=0;exitDy=0;" edge="1" parent="1" source="IhZcXb-aFPSrtWPQYi8L-11" target="IhZcXb-aFPSrtWPQYi8L-24">
          <mxGeometry width="50" height="50" relative="1" as="geometry">
            <mxPoint x="440" y="415" as="sourcePoint" />
            <mxPoint x="550" y="435" as="targetPoint" />
          </mxGeometry>
        </mxCell>
        <mxCell id="IhZcXb-aFPSrtWPQYi8L-24" value="exc&lt;span style=&quot;color: rgba(0, 0, 0, 0); font-family: monospace; font-size: 0px; text-align: start;&quot;&gt;%3CmxGraphModel%3E%3Croot%3E%3CmxCell%20id%3D%220%22%2F%3E%3CmxCell%20id%3D%221%22%20parent%3D%220%22%2F%3E%3CmxCell%20id%3D%222%22%20value%3D%22%22%20style%3D%22endArrow%3Dnone%3Bhtml%3D1%3Brounded%3D0%3BentryX%3D0.014%3BentryY%3D0.617%3BentryDx%3D0%3BentryDy%3D0%3BentryPerimeter%3D0%3B%22%20edge%3D%221%22%20parent%3D%221%22%3E%3CmxGeometry%20width%3D%2250%22%20height%3D%2250%22%20relative%3D%221%22%20as%3D%22geometry%22%3E%3CmxPoint%20x%3D%2220%22%20y%3D%22243%22%20as%3D%22sourcePoint%22%2F%3E%3CmxPoint%20x%3D%22380%22%20y%3D%2287%22%20as%3D%22targetPoint%22%2F%3E%3C%2FmxGeometry%3E%3C%2FmxCell%3E%3C%2Froot%3E%3C%2FmxGraphModel%3E&lt;/span&gt;lude" style="text;html=1;align=center;verticalAlign=middle;resizable=0;points=[];autosize=1;strokeColor=none;fillColor=none;" vertex="1" parent="1">
          <mxGeometry x="490" y="430" width="60" height="30" as="geometry" />
        </mxCell>
      </root>
    </mxGraphModel>
  </diagram>
</mxfile>
